<?xml version="1.0" encoding="utf-8"?>
<svg viewBox="0 0 120 120" xmlns="http://www.w3.org/2000/svg" xmlns:xlink="http://www.w3.org/1999/xlink">
  <style>
    :root>svg {
      display: none
    }

    :root>svg:target {
      display: block
    }
  </style>
  <svg viewBox="0 0 50 50" id="discord" xmlns="http://www.w3.org/2000/svg">
    <circle cx="25" cy="25" r="25" />
    <path
      d="M36.09 14.99c-2.04-.92-4.227-1.6-6.513-1.986a.1.1 0 00-.106.048c-.28.492-.592 1.133-.81 1.64a24.758 24.758 0 00-7.316 0 16.487 16.487 0 00-.823-1.64.103.103 0 00-.105-.05 26.635 26.635 0 00-6.514 1.987.093.093 0 00-.042.036c-4.15 6.1-5.287 12.05-4.728 17.924a.107.107 0 00.041.074 26.707 26.707 0 007.99 3.973.104.104 0 00.113-.035c.616-.826 1.165-1.7 1.634-2.617a.1.1 0 00-.054-.139 17.61 17.61 0 01-2.496-1.17.1.1 0 01-.011-.167c.168-.124.336-.253.496-.383a.099.099 0 01.104-.013c5.236 2.352 10.907 2.352 16.081 0a.1.1 0 01.106.012c.16.13.326.26.496.384a.1.1 0 01-.008.167c-.798.458-1.627.846-2.498 1.169a.1.1 0 00-.054.14c.48.916 1.029 1.788 1.633 2.616a.102.102 0 00.112.037 26.617 26.617 0 008.003-3.974.102.102 0 00.042-.072c.667-6.792-1.117-12.694-4.732-17.923a.08.08 0 00-.041-.037zM19.694 29.373c-1.576 0-2.876-1.425-2.876-3.173 0-1.75 1.275-3.174 2.876-3.174 1.613 0 2.901 1.436 2.876 3.174 0 1.749-1.275 3.173-2.876 3.173zm10.633 0c-1.577 0-2.876-1.425-2.876-3.173 0-1.75 1.274-3.174 2.876-3.174 1.614 0 2.902 1.436 2.876 3.174 0 1.749-1.261 3.173-2.876 3.173z"
      fill="#fff" />
  </svg>
  <svg viewBox="0 0 120 120" id="logo" xmlns="http://www.w3.org/2000/svg">
    <circle cx="60" cy="60" r="60" />
    <path
      d="M55.956 27.625c1.655-3.5 6.436-3.5 8.087 0l8.374 17.717 18.716 2.84c3.701.562 5.176 5.313 2.5 8.039L80.088 70.01l3.198 19.472c.635 3.847-3.235 6.78-6.541 4.964l-16.748-9.195-16.737 9.195c-3.31 1.82-7.176-1.117-6.545-4.964l3.198-19.473-13.546-13.79c-2.675-2.729-1.198-7.472 2.5-8.038l18.716-2.84 8.37-17.717h.004z"
      fill="#fff" />
  </svg>
  <svg viewBox="0 0 50 50" id="tiktok" xmlns="http://www.w3.org/2000/svg">
    <circle cx="25" cy="25" r="25" />
    <path
      d="M34.764 16.416c-.202-.104-.4-.22-.59-.343a8.31 8.31 0 01-1.517-1.29c-1.131-1.294-1.554-2.607-1.71-3.526h.007c-.13-.763-.076-1.257-.068-1.257h-5.153v19.924c0 .267 0 .532-.011.793 0 .032-.003.062-.005.097 0 .015 0 .03-.003.045v.011a4.374 4.374 0 01-2.201 3.473 4.3 4.3 0 01-2.132.562c-2.4 0-4.347-1.958-4.347-4.375 0-2.418 1.946-4.375 4.347-4.375.454 0 .906.071 1.338.212l.006-5.246a9.57 9.57 0 00-7.375 2.157 10.113 10.113 0 00-2.206 2.72c-.218.376-1.038 1.883-1.138 4.328-.062 1.388.355 2.827.553 3.42v.013c.125.35.61 1.545 1.4 2.552a10.469 10.469 0 002.231 2.105v-.012l.013.012c2.494 1.695 5.26 1.584 5.26 1.584.478-.02 2.082 0 3.903-.863 2.02-.957 3.17-2.383 3.17-2.383a9.904 9.904 0 001.728-2.87c.466-1.226.622-2.696.622-3.283V20.03c.062.037.895.588.895.588s1.2.768 3.07 1.27c1.343.355 3.152.43 3.152.43v-5.115c-.634.07-1.921-.13-3.239-.788z"
      fill="#fff" />
  </svg>
  <svg viewBox="0 0 50 50" id="vk" xmlns="http://www.w3.org/2000/svg">
    <circle cx="25" cy="25" r="25" fill="#fff" />
    <path
      d="M25 0C11.193 0 0 11.193 0 25s11.193 25 25 25 25-11.193 25-25S38.807 0 25 0zm9.615 28.206s2.21 2.182 2.755 3.195c.015.02.023.042.028.052.222.373.274.662.164.878-.182.36-.807.536-1.02.552h-3.907c-.27 0-.838-.07-1.526-.544-.528-.37-1.05-.977-1.557-1.568-.758-.88-1.414-1.64-2.075-1.64a.793.793 0 00-.248.038c-.5.162-1.14.875-1.14 2.776 0 .594-.47.935-.8.935H23.5c-.61 0-3.784-.213-6.596-3.18-3.443-3.632-6.542-10.919-6.568-10.986-.195-.472.208-.724.648-.724h3.946c.526 0 .698.32.817.604.141.33.657 1.646 1.503 3.125 1.372 2.411 2.213 3.39 2.888 3.39a.781.781 0 00.362-.093c.88-.49.716-3.628.677-4.279 0-.122-.003-1.404-.453-2.018-.323-.446-.872-.615-1.206-.677.135-.187.313-.338.518-.44.605-.303 1.693-.347 2.774-.347h.602c1.171.016 1.473.091 1.898.198.86.206.878.76.802 2.659a41.31 41.31 0 00-.047 1.867c0 .156-.008.323-.008.5-.026.966-.057 2.063.625 2.513a.562.562 0 00.297.086c.237 0 .95 0 2.883-3.315a25.306 25.306 0 001.55-3.318c.039-.067.153-.276.289-.357.1-.05.21-.076.322-.075h4.638c.506 0 .852.075.917.27.115.31-.02 1.256-2.138 4.123l-.945 1.248c-1.92 2.515-1.92 2.643.12 4.552z" />
  </svg>
  <svg viewBox="0 0 50 50" id="youtube" xmlns="http://www.w3.org/2000/svg">
    <circle cx="25" cy="25" r="25" fill="#fff" />
    <path
      d="M29.174 24.565l-5.848-2.73c-.51-.236-.93.03-.93.595v5.14c0 .565.42.831.93.594l5.846-2.73c.513-.239.513-.63.002-.869zM25 0C11.193 0 0 11.193 0 25s11.193 25 25 25 25-11.193 25-25S38.807 0 25 0zm0 35.156c-12.797 0-13.02-1.153-13.02-10.156S12.202 14.844 25 14.844c12.797 0 13.02 1.153 13.02 10.156S37.798 35.156 25 35.156z" />
  </svg>
  <svg viewBox="0 0 50 50" id="tg" xmlns="http://www.w3.org/2000/svg">
    <path
      d="M25 50C38.8071 50 50 38.8071 50 25C50 11.1929 38.8071 0 25 0C11.1929 0 0 11.1929 0 25C0 38.8071 11.1929 50 25 50Z" />
    <path
      d="M36.8401 12.1765L8.4942 23.1071C6.55971 23.8841 6.57091 24.9633 8.13928 25.4445L15.4168 27.7147L32.2548 17.091C33.051 16.6066 33.7784 16.8672 33.1805 17.398L19.5384 29.71H19.5352L19.5384 29.7116L19.0364 37.2129C19.7718 37.2129 20.0963 36.8756 20.5088 36.4775L24.0436 33.0402L31.3963 38.4711C32.752 39.2177 33.7257 38.834 34.063 37.2161L38.8896 14.4691C39.3837 12.4882 38.1334 11.5913 36.8401 12.1765V12.1765Z"
      fill="white" />
  </svg>
</svg>