<svg width="50" height="50" viewBox="0 0 50 50" fill="none" xmlns="http://www.w3.org/2000/svg">
<path d="M25 50C38.8071 50 50 38.8071 50 25C50 11.1929 38.8071 0 25 0C11.1929 0 0 11.1929 0 25C0 38.8071 11.1929 50 25 50Z" fill="black"/>
<path d="M36.8401 12.1765L8.4942 23.1071C6.55971 23.8841 6.57091 24.9633 8.13928 25.4445L15.4168 27.7147L32.2548 17.091C33.051 16.6066 33.7784 16.8672 33.1805 17.398L19.5384 29.71H19.5352L19.5384 29.7116L19.0364 37.2129C19.7718 37.2129 20.0963 36.8756 20.5088 36.4775L24.0436 33.0402L31.3963 38.4711C32.752 39.2177 33.7257 38.834 34.063 37.2161L38.8896 14.4691C39.3837 12.4882 38.1334 11.5913 36.8401 12.1765V12.1765Z" fill="white"/>
</svg>
